<?xml version="1.0" encoding="UTF-8"?>
<svg xmlns="http://www.w3.org/2000/svg" xmlns:xlink="http://www.w3.org/1999/xlink" width="600px" height="400px" viewBox="0 0 600 400" version="1.1">
<defs>
<linearGradient id="linear0" gradientUnits="userSpaceOnUse" x1="-3.1616" y1="35.3285" x2="19.1168" y2="41.7837" gradientTransform="matrix(4.683982,0,0,-1.328687,66.918166,265.535606)">
<stop offset="0" style="stop-color:rgb(100%,83.529412%,12.941176%);stop-opacity:1;"/>
<stop offset="0.05" style="stop-color:rgb(100%,83.529412%,12.941176%);stop-opacity:1;"/>
<stop offset="0.501119" style="stop-color:rgb(96.078431%,0%,0%);stop-opacity:1;"/>
<stop offset="0.95" style="stop-color:rgb(72.54902%,0%,70.588235%);stop-opacity:1;"/>
<stop offset="0.950079" style="stop-color:rgb(72.54902%,0%,70.588235%);stop-opacity:1;"/>
<stop offset="1" style="stop-color:rgb(72.54902%,0%,70.588235%);stop-opacity:1;"/>
</linearGradient>
</defs>
<g id="surface1">
<path style=" stroke:none;fill-rule:nonzero;fill:url(#linear0);" d="M 92.996094 134.992188 C 83.546875 138.945312 73.15625 150.105469 69.875 164.144531 C 65.714844 181.914062 83.015625 189.417969 84.429688 186.96875 C 86.089844 184.066406 81.316406 183.089844 80.34375 173.875 C 79.089844 161.960938 84.613281 148.648438 91.585938 142.808594 C 92.886719 141.742188 92.824219 143.246094 92.824219 146.027344 C 92.824219 151.035156 92.542969 195.851562 92.542969 205.210938 C 92.542969 217.875 92.023438 221.863281 91.066406 225.804688 C 90.125 229.808594 88.601562 232.507812 89.75 233.558594 C 91.050781 234.722656 96.574219 231.957031 99.777344 227.484375 C 103.609375 222.128906 104.960938 215.695312 105.210938 208.710938 C 105.492188 200.296875 105.476562 186.921875 105.492188 179.308594 C 105.492188 172.304688 105.601562 151.835938 105.382812 139.511719 C 105.320312 136.5 96.9375 133.34375 92.996094 134.992188 M 528.683594 201.488281 C 527.332031 201.488281 526.691406 202.902344 526.171875 205.273438 C 524.382812 213.546875 522.5 215.410156 520.066406 215.410156 C 517.351562 215.410156 514.917969 211.316406 514.273438 203.121094 C 513.789062 196.683594 513.863281 184.816406 514.492188 173.011719 C 514.621094 170.59375 513.957031 168.195312 507.457031 165.824219 C 504.652344 164.820312 500.582031 163.3125 498.5625 168.207031 C 492.828125 182.007812 490.601562 192.996094 490.066406 197.441406 C 490.054688 197.671875 489.769531 197.707031 489.71875 197.171875 C 489.394531 193.609375 488.636719 187.125 488.546875 173.496094 C 488.511719 170.863281 487.964844 168.585938 485.011719 166.730469 C 483.113281 165.539062 477.335938 163.40625 475.246094 165.933594 C 473.457031 168.003906 471.371094 173.5625 469.191406 180.15625 C 467.429688 185.523438 466.207031 189.167969 466.207031 189.167969 C 466.207031 189.167969 466.21875 174.691406 466.253906 169.195312 C 466.253906 167.125 464.839844 166.433594 464.417969 166.308594 C 462.484375 165.742188 458.667969 164.820312 457.070312 164.820312 C 455.078125 164.820312 454.605469 165.933594 454.605469 167.550781 C 454.605469 167.753906 454.273438 186.589844 454.273438 199.761719 L 454.273438 201.613281 C 453.191406 207.675781 449.613281 215.902344 445.734375 215.902344 C 441.859375 215.902344 440.023438 212.460938 440.023438 196.765625 C 440.023438 187.609375 440.304688 183.625 440.429688 177 C 440.507812 173.183594 440.664062 170.25 440.648438 169.574219 C 440.617188 167.550781 437.085938 166.511719 435.453125 166.136719 C 433.804688 165.742188 432.375 165.617188 431.246094 165.664062 C 429.675781 165.761719 428.5625 166.792969 428.5625 168.242188 L 428.5625 170.4375 C 426.535156 167.238281 423.253906 165.003906 421.058594 164.363281 C 415.1875 162.621094 409.046875 164.171875 404.417969 170.640625 C 400.746094 175.792969 398.53125 181.613281 397.667969 189.980469 C 397.023438 196.105469 397.230469 202.304688 398.375 207.546875 C 396.992188 213.464844 394.449219 215.902344 391.671875 215.902344 C 387.617188 215.902344 384.703125 209.304688 385.03125 197.890625 C 385.265625 190.390625 386.757812 185.132812 388.402344 177.503906 C 389.113281 174.253906 388.53125 172.558594 387.105469 170.910156 C 385.800781 169.433594 383.003906 168.664062 379.003906 169.589844 C 376.160156 170.265625 372.066406 170.984375 368.34375 171.539062 C 368.34375 171.539062 368.5625 170.640625 368.753906 169.058594 C 369.710938 160.75 360.683594 161.425781 357.808594 164.082031 C 356.082031 165.664062 354.90625 167.53125 354.464844 170.894531 C 353.761719 176.230469 358.109375 178.742188 358.109375 178.742188 C 356.679688 185.273438 353.195312 193.8125 349.570312 199.980469 C 347.636719 203.292969 346.160156 205.730469 344.246094 208.332031 C 344.230469 207.375 344.230469 206.402344 344.230469 205.445312 C 344.195312 191.707031 344.371094 180.894531 344.449219 177 C 344.53125 173.183594 344.6875 170.328125 344.6875 169.652344 C 344.652344 168.175781 343.792969 167.597656 341.96875 166.90625 C 340.367188 166.277344 338.46875 165.824219 336.507812 165.664062 C 334.042969 165.476562 332.535156 166.792969 332.582031 168.347656 L 332.582031 170.4375 C 330.542969 167.238281 327.257812 165.003906 325.09375 164.363281 C 319.207031 162.621094 313.070312 164.171875 308.441406 170.640625 C 304.78125 175.792969 302.363281 182.996094 301.671875 189.902344 C 301.046875 196.371094 301.15625 201.832031 302.03125 206.449219 C 301.089844 211.0625 298.40625 215.902344 295.363281 215.902344 C 291.484375 215.902344 289.269531 212.460938 289.269531 196.765625 C 289.269531 187.609375 289.554688 183.625 289.695312 177 C 289.773438 173.183594 289.914062 170.25 289.898438 169.574219 C 289.882812 167.550781 286.351562 166.511719 284.703125 166.136719 C 282.992188 165.730469 281.5 165.605469 280.367188 165.664062 C 278.863281 165.789062 277.8125 167.125 277.8125 168.144531 L 277.8125 170.4375 C 275.773438 167.238281 272.488281 165.003906 270.308594 164.363281 C 264.4375 162.621094 258.34375 164.207031 253.683594 170.640625 C 250.636719 174.835938 248.171875 179.496094 246.902344 189.824219 C 246.558594 192.808594 246.382812 195.601562 246.402344 198.207031 C 245.191406 205.617188 239.839844 214.15625 235.472656 214.15625 C 232.898438 214.15625 230.449219 209.195312 230.449219 198.601562 C 230.449219 184.503906 231.328125 164.410156 231.484375 162.464844 C 231.484375 162.464844 237.011719 162.367188 238.09375 162.355469 C 240.84375 162.335938 243.355469 162.402344 247.011719 162.210938 C 248.867188 162.117188 250.636719 155.507812 248.722656 154.675781 C 247.875 154.3125 241.785156 153.984375 239.367188 153.9375 C 237.328125 153.890625 231.6875 153.46875 231.6875 153.46875 C 231.6875 153.46875 232.195312 140.140625 232.304688 138.742188 C 232.398438 137.550781 230.890625 136.953125 230.011719 136.59375 C 227.890625 135.683594 225.992188 135.257812 223.761719 134.800781 C 220.636719 134.160156 219.242188 134.789062 218.976562 137.40625 C 218.566406 141.382812 218.347656 153.03125 218.347656 153.03125 C 216.054688 153.03125 208.285156 152.570312 206.007812 152.570312 C 203.890625 152.570312 201.597656 161.679688 204.53125 161.789062 C 207.910156 161.914062 213.761719 162.042969 217.65625 162.148438 C 217.65625 162.148438 217.480469 182.574219 217.480469 188.867188 L 217.480469 190.8125 C 215.332031 201.972656 207.8125 208.003906 207.8125 208.003906 C 209.429688 200.609375 206.132812 195.066406 200.167969 190.390625 C 197.96875 188.648438 193.640625 185.367188 188.785156 181.804688 C 188.785156 181.804688 191.597656 179.027344 194.089844 173.46875 C 195.851562 169.527344 195.929688 164.992188 191.597656 164 C 184.4375 162.355469 178.550781 167.613281 176.777344 173.230469 C 175.425781 177.566406 176.136719 180.796875 178.816406 184.140625 L 179.429688 184.894531 C 177.828125 188.003906 175.601562 192.195312 173.730469 195.445312 C 168.503906 204.472656 164.5625 211.601562 161.597656 211.601562 C 159.210938 211.601562 159.242188 204.363281 159.242188 197.578125 C 159.242188 191.738281 159.679688 182.933594 160.027344 173.828125 C 160.136719 170.828125 158.628906 169.101562 156.105469 167.550781 C 154.566406 166.609375 151.296875 164.753906 149.398438 164.753906 C 146.574219 164.753906 138.378906 165.132812 130.640625 187.5 C 129.667969 190.328125 127.753906 195.460938 127.753906 195.460938 L 127.925781 168.554688 C 127.925781 167.925781 127.59375 167.332031 126.828125 166.90625 C 125.523438 166.199219 122.023438 164.753906 118.945312 164.753906 C 117.453125 164.753906 116.714844 165.449219 116.714844 166.8125 L 116.464844 208.882812 C 116.464844 212.085938 116.542969 215.820312 116.859375 217.453125 C 117.171875 219.085938 117.691406 220.421875 118.320312 221.21875 C 118.945312 221.992188 119.683594 222.585938 120.875 222.851562 C 121.992188 223.089844 128.128906 223.855469 128.445312 221.519531 C 128.835938 218.707031 128.851562 215.679688 132.070312 204.332031 C 137.09375 186.6875 143.625 178.085938 146.703125 175.019531 C 147.25 174.488281 147.863281 174.457031 147.828125 175.335938 C 147.691406 179.210938 147.234375 188.867188 146.921875 197.078125 C 146.089844 219.070312 150.074219 223.136719 155.804688 223.136719 C 160.171875 223.136719 166.324219 218.789062 172.933594 207.800781 C 177.0625 200.9375 181.050781 194.238281 183.9375 189.386719 C 185.914062 191.234375 188.175781 193.230469 190.417969 195.367188 C 195.648438 200.308594 197.359375 205.019531 196.214844 209.480469 C 195.347656 212.898438 192.070312 216.417969 186.246094 212.996094 C 184.546875 212.003906 183.828125 211.238281 182.117188 210.105469 C 181.207031 209.496094 179.792969 209.320312 178.960938 209.949219 C 176.761719 211.601562 175.519531 213.683594 174.800781 216.277344 C 174.125 218.804688 176.652344 220.121094 179.273438 221.28125 C 181.519531 222.304688 186.355469 223.199219 189.445312 223.308594 C 201.484375 223.71875 211.125 217.5 217.828125 201.488281 C 219.039062 215.320312 224.136719 223.152344 233.007812 223.152344 C 238.957031 223.152344 244.90625 215.476562 247.515625 207.925781 C 248.25 211 249.363281 213.667969 250.792969 215.949219 C 257.640625 226.777344 270.917969 224.457031 277.574219 215.253906 C 279.648438 212.398438 279.964844 211.378906 279.964844 211.378906 C 280.933594 220.0625 287.9375 223.117188 291.941406 223.117188 C 296.445312 223.117188 301.0625 220.988281 304.308594 213.667969 C 304.699219 214.46875 305.109375 215.226562 305.582031 215.949219 C 312.410156 226.777344 325.691406 224.457031 332.363281 215.253906 C 332.660156 214.800781 332.945312 214.425781 333.175781 214.0625 L 333.382812 219.777344 C 333.382812 219.777344 329.566406 223.261719 327.230469 225.410156 C 316.949219 234.847656 309.128906 242.003906 308.550781 250.324219 C 307.828125 260.953125 316.429688 264.894531 322.957031 265.410156 C 329.867188 265.960938 335.800781 262.144531 339.441406 256.777344 C 342.644531 252.066406 344.75 241.941406 344.59375 231.925781 C 344.53125 227.910156 344.433594 222.824219 344.339844 217.34375 C 347.964844 213.167969 352.046875 207.859375 355.785156 201.648438 C 359.878906 194.894531 364.246094 185.804688 366.472656 178.726562 C 366.472656 178.726562 370.289062 178.757812 374.339844 178.507812 C 375.644531 178.425781 376.019531 178.695312 375.765625 179.636719 C 375.484375 180.78125 370.652344 199.449219 375.0625 211.882812 C 378.09375 220.386719 384.886719 223.136719 388.9375 223.136719 C 393.664062 223.136719 398.1875 219.554688 400.601562 214.25 C 400.902344 214.832031 401.199219 215.410156 401.546875 215.949219 C 408.375 226.777344 421.605469 224.4375 428.324219 215.253906 C 429.847656 213.167969 430.699219 211.378906 430.699219 211.378906 C 432.140625 220.375 439.144531 223.152344 443.144531 223.152344 C 447.335938 223.152344 451.289062 221.441406 454.511719 213.84375 C 454.636719 217.1875 454.839844 219.917969 455.183594 220.78125 C 455.386719 221.316406 456.582031 221.972656 457.429688 222.304688 C 461.257812 223.71875 465.15625 223.042969 466.582031 222.742188 C 467.585938 222.539062 468.371094 221.753906 468.46875 219.683594 C 468.746094 214.25 468.574219 205.128906 470.222656 198.335938 C 473 186.96875 475.574219 182.558594 476.800781 180.375 C 477.476562 179.148438 478.261719 178.945312 478.277344 180.234375 C 478.324219 182.855469 478.464844 190.546875 479.546875 200.910156 C 480.320312 208.507812 481.371094 213.011719 482.183594 214.441406 C 484.476562 218.503906 487.332031 218.695312 489.640625 218.695312 C 491.121094 218.695312 494.195312 218.285156 493.925781 215.695312 C 493.785156 214.441406 494.023438 206.636719 496.738281 195.429688 C 498.527344 188.097656 501.492188 181.492188 502.5625 179.070312 C 502.972656 178.175781 503.144531 178.867188 503.144531 179.007812 C 502.90625 184.046875 502.40625 200.546875 504.445312 209.558594 C 507.242188 221.789062 515.292969 223.152344 518.101562 223.152344 C 524.082031 223.152344 529 218.597656 530.644531 206.605469 C 531.054688 203.714844 530.457031 201.488281 528.683594 201.488281 M 277.683594 194.082031 C 277.355469 200.421875 276.113281 205.730469 274.140625 209.574219 C 270.527344 216.558594 263.417969 218.757812 260.292969 208.695312 C 258.015625 201.429688 258.785156 191.503906 259.742188 186.152344 C 261.121094 178.207031 264.625 172.589844 270.085938 173.105469 C 275.675781 173.65625 278.40625 180.863281 277.683594 194.082031 M 332.457031 194.171875 C 332.144531 200.152344 330.589844 206.179688 328.894531 209.574219 C 325.394531 216.605469 318.078125 218.804688 315.046875 208.695312 C 312.976562 201.769531 313.460938 192.839844 314.496094 187.21875 C 315.835938 179.902344 319.050781 173.105469 324.84375 173.105469 C 330.480469 173.105469 333.257812 179.292969 332.457031 194.171875 M 333.886719 235.050781 C 333.804688 245.992188 332.097656 255.570312 328.421875 258.363281 C 323.179688 262.320312 316.128906 259.335938 317.589844 251.363281 C 318.878906 244.296875 324.984375 237.09375 333.902344 228.285156 C 333.902344 228.285156 333.933594 230.292969 333.886719 235.050781 M 428.453125 194.238281 C 428.136719 200.816406 426.675781 205.949219 424.875 209.574219 C 421.371094 216.605469 414.121094 218.789062 411.027344 208.695312 C 409.347656 203.183594 409.265625 193.984375 410.476562 186.308594 C 411.703125 178.488281 415.140625 172.589844 420.820312 173.105469 C 426.441406 173.640625 429.066406 180.863281 428.453125 194.238281 "/>
</g>
</svg>
